<?xml version="1.0" encoding="UTF-8"?>
<svg width="26px" height="18px" viewBox="0 0 26 18" version="1.1" xmlns="http://www.w3.org/2000/svg" xmlns:xlink="http://www.w3.org/1999/xlink">
    <!-- Generator: Sketch 52.4 (67378) - http://www.bohemiancoding.com/sketch -->
    <title>Path</title>
    <desc>Created with Sketch.</desc>
    <g id="Page-1" stroke="none" stroke-width="1" fill="none" fill-rule="evenodd">
        <g id="Desktop" transform="translate(-271.000000, -849.000000)" fill="#FFFFFF">
            <g id="Group-2" transform="translate(80.000000, 624.000000)">
                <g id="Group" transform="translate(50.000000, 207.000000)">
                    <path d="M166.788893,26.3895837 L160.048291,18.338294 C159.689538,17.9306534 159.076612,17.8947684 158.686612,18.2124952 C158.296659,18.5302173 158.235752,19.1683137 158.55873,19.5519046 L163.990327,26.049157 L141.962964,26.049157 C141.431119,26.049157 141,26.4732222 141,26.9963654 C141,27.5195085 141.431119,27.9435737 141.962964,27.9435737 L163.990327,27.9435737 L158.55873,34.4408545 C158.235752,34.8244265 158.300704,35.4578247 158.686612,35.7802544 C159.093512,36.1201601 159.725313,36.0380372 160.048291,35.6544652 L166.788893,27.6031944 C167.089915,27.1426617 167.050241,26.7960781 166.788893,26.3895837 Z" id="Path"></path>
                </g>
            </g>
        </g>
    </g>
</svg>